<?xml version="1.0" standalone="no"?>
<!DOCTYPE svg PUBLIC "-//W3C//DTD SVG 20010904//EN"
 "http://www.w3.org/TR/2001/REC-SVG-20010904/DTD/svg10.dtd">
<svg version="1.0" xmlns="http://www.w3.org/2000/svg"
 width="16.000000pt" height="16.000000pt" viewBox="0 0 16.000000 16.000000"
 preserveAspectRatio="xMidYMid meet">
<metadata>
Created by potrace 1.11, written by Peter Selinger 2001-2013
</metadata>
<g transform="translate(0.000000,16.000000) scale(0.001563,-0.001563)"
fill="#000000" stroke="none">
<path d="M3140 9310 c-153 -15 -354 -58 -511 -110 -336 -111 -617 -281 -873
-530 -266 -259 -452 -554 -565 -897 -85 -256 -115 -445 -115 -723 1 -269 32
-462 114 -713 273 -830 1012 -1430 1888 -1532 70 -8 165 -15 213 -15 217 0
441 -43 624 -119 460 -192 789 -592 896 -1091 32 -149 33 -428 1 -577 -49
-228 -149 -451 -278 -623 -228 -303 -543 -505 -914 -586 -130 -29 -457 -26
-596 4 -306 66 -550 197 -760 406 -169 169 -270 333 -344 555 -51 151 -70 263
-77 444 l-6 147 -390 0 -390 0 6 -188 c6 -196 21 -310 63 -477 94 -376 285
-719 555 -999 368 -382 870 -628 1401 -685 125 -14 381 -14 506 0 887 96 1638
709 1922 1569 l38 115 89 -3 c177 -7 364 -57 548 -147 447 -218 771 -637 875
-1132 13 -59 23 -158 27 -251 l6 -152 389 0 388 0 0 1998 c0 1098 -3 2129 -7
2290 l-6 292 -409 0 -408 0 0 -1330 c0 -731 -2 -1330 -6 -1330 -3 0 -35 24
-72 54 -254 205 -597 367 -932 440 -103 22 -163 31 -362 51 l-58 6 0 37 c0 54
-27 212 -55 323 -142 560 -495 1054 -979 1371 -218 142 -439 241 -677 302
-173 45 -316 64 -559 75 -218 11 -315 27 -466 76 -322 106 -611 332 -791 620
-98 155 -177 374 -208 571 -25 155 -16 407 18 555 67 283 197 511 410 716 446
429 1122 540 1686 277 261 -122 517 -358 661 -611 131 -228 195 -460 207 -745
l6 -148 390 0 390 0 -6 183 c-19 619 -260 1166 -703 1597 -353 344 -767 551
-1249 625 -124 19 -418 27 -545 15z"/>
</g>
</svg>
